<svg xmlns="http://www.w3.org/2000/svg" viewBox="0 0 32 32" width="32" height="32">
  <!-- Background red circle behind character -->
  <circle cx="16" cy="16" r="14" fill="#DC2626"/>
  
  <!-- Anime character head -->
  <circle cx="16" cy="14" r="7" fill="#FEF3C7"/>
  
  <!-- Hair - dark blue pigtails -->
  <path d="M 10 10 Q 8 8 7 12 Q 6 16 8 20 Q 10 22 12 20 Q 14 18 13 14 Q 12 10 10 10" fill="#1E3A8A"/>
  <path d="M 22 10 Q 24 8 25 12 Q 26 16 24 20 Q 22 22 20 20 Q 18 18 19 14 Q 20 10 22 10" fill="#1E3A8A"/>
  
  <!-- Eyes -->
  <circle cx="14" cy="13" r="1.2" fill="#000000"/>
  <circle cx="18" cy="13" r="1.2" fill="#000000"/>
  <circle cx="14.5" cy="12.5" r="0.4" fill="#FFFFFF"/>
  <circle cx="18.5" cy="12.5" r="0.4" fill="#FFFFFF"/>
  
  <!-- Mouth -->
  <ellipse cx="16" cy="17" rx="1.2" ry="0.8" fill="#F472B6"/>
  
  <!-- Body/shirt -->
  <rect x="12" y="21" width="8" height="6" rx="3" fill="#1E3A8A"/>
</svg>
