<svg xmlns="http://www.w3.org/2000/svg" viewBox="0 0 200 80" width="200" height="80">
  <!-- Background red circle behind character -->
  <circle cx="40" cy="40" r="35" fill="#DC2626"/>
  
  <!-- Anime character -->
  <!-- Head -->
  <circle cx="40" cy="35" r="18" fill="#FEF3C7"/>
  
  <!-- Hair - dark blue pigtails -->
  <path d="M 25 25 Q 20 20 18 30 Q 15 40 20 50 Q 25 55 30 50 Q 35 45 32 35 Q 30 25 25 25" fill="#1E3A8A"/>
  <path d="M 55 25 Q 60 20 62 30 Q 65 40 60 50 Q 55 55 50 50 Q 45 45 48 35 Q 50 25 55 25" fill="#1E3A8A"/>
  
  <!-- Eyes -->
  <circle cx="35" cy="32" r="3" fill="#000000"/>
  <circle cx="45" cy="32" r="3" fill="#000000"/>
  <circle cx="36" cy="31" r="1" fill="#FFFFFF"/>
  <circle cx="46" cy="31" r="1" fill="#FFFFFF"/>
  
  <!-- Eyebrows -->
  <path d="M 32 28 Q 35 26 38 28" stroke="#000000" stroke-width="1.5" fill="none"/>
  <path d="M 42 28 Q 45 26 48 28" stroke="#000000" stroke-width="1.5" fill="none"/>
  
  <!-- Mouth -->
  <ellipse cx="40" cy="42" rx="3" ry="2" fill="#F472B6"/>
  <ellipse cx="40" cy="42" rx="1.5" ry="1" fill="#FFFFFF"/>
  
  <!-- Body/shirt -->
  <rect x="30" y="53" width="20" height="15" rx="8" fill="#1E3A8A"/>
  
  <!-- GitAnime Text -->
  <text x="90" y="35" font-family="Arial, sans-serif" font-size="24" font-weight="bold" fill="#1E3A8A">Git</text>
  <text x="90" y="55" font-family="Arial, sans-serif" font-size="24" font-weight="bold" fill="#1E3A8A">Anime</text>
</svg>
